<?xml version="1.0" encoding="UTF-8"?>
<svg id="Capa_1" data-name="Capa 1" xmlns="http://www.w3.org/2000/svg" viewBox="0 0 269.29 269.29">
  <defs>
    <style>
      .cls-1 {
        fill: #fff;
      }

      .cls-1, .cls-2 {
        stroke-width: 0px;
      }

      .cls-2 {
        fill: #1d1d1b;
      }
    </style>
  </defs>
  <g>
    <path class="cls-2" d="M66.29,173.09l28.2-1h56.6v13.4h-84.8v-12.4ZM94.09,163.89c0-23.6,12.4-39.4,39.2-39.4,9.6,0,18.8,1.8,28,5.6l-3.8,12.4c-8-3.4-14.2-4.6-22.6-4.6-17.4,0-24.4,9.8-24.4,25.4v106h-16.4v-105.4Z"/>
    <path class="cls-2" d="M182.09,138.09h18.4l42,82.4,12.6,27.2h.4c-.6-13-2.2-27.8-2.2-41.6v-68h16v131.2h-18.4l-42-82.4-12.6-27.2h-.4c.6,13.4,2.2,27.4,2.2,41v68.6h-16v-131.2Z"/>
  </g>
  <rect class="cls-2" width="85.04" height="85.04"/>
  <g>
    <path class="cls-1" d="M39.15,74.75c-3.99-.12-6.99-1-9.02-2.64-2.02-1.64-3.04-4.31-3.04-8.02v-10.88c0-5.79-2.45-8.96-7.34-9.52v-2.34c4.9-.54,7.34-3.5,7.34-8.9v-11.5c0-3.71,1.01-6.38,3.04-8.02,2.02-1.64,5.03-2.51,9.02-2.64v3.08c-2.76.12-4.71.82-5.84,2.09-1.13,1.27-1.69,3.46-1.69,6.56v10.73c0,5.42-2.28,8.67-6.83,9.74v.15c4.55,1.12,6.83,4.55,6.83,10.29v10.11c0,3.1.56,5.29,1.69,6.56,1.13,1.27,3.08,1.96,5.84,2.09v3.08Z"/>
    <path class="cls-1" d="M65.28,43.69c-4.87.56-7.3,3.74-7.3,9.52v10.88c0,3.74-1.01,6.41-3.04,8.04-2.02,1.62-5.03,2.5-9.02,2.62v-3.08c2.57-.12,4.46-.77,5.67-1.94,1.21-1.17,1.81-3.41,1.81-6.7v-10.11c0-5.74,2.29-9.17,6.87-10.29v-.15c-4.58-1.1-6.87-4.35-6.87-9.74v-10.73c0-3.3-.6-5.53-1.81-6.7-1.21-1.17-3.1-1.82-5.67-1.94v-3.08c3.99.12,6.99,1,9.02,2.62,2.02,1.62,3.04,4.3,3.04,8.04v11.5c0,5.4,2.43,8.36,7.3,8.9v2.34Z"/>
  </g>
</svg>