<?xml version="1.0" encoding="utf-8"?>
<!-- Generator: Adobe Illustrator 28.1.0, SVG Export Plug-In . SVG Version: 6.00 Build 0)  -->
<svg version="1.1" id="Capa_1" xmlns="http://www.w3.org/2000/svg" xmlns:xlink="http://www.w3.org/1999/xlink" x="0px" y="0px"
	 viewBox="0 0 104.7 104.7" style="enable-background:new 0 0 104.7 104.7;" xml:space="preserve">
<style type="text/css">
	.st0{stroke:#000000;stroke-miterlimit:10;}
	.st1{fill:#ADADAD;}
	.st2{fill:#474747;}
</style>
<rect class="st0" width="104.7" height="104.7"/>
<polygon class="st1" points="50.1,24.9 46.2,31.7 36.7,47.6 32.3,40.1 45.7,17.5 54.3,17.5 63,17.5 67.3,24.9 "/>
<polygon class="st2" points="75,36.5 67,36.5 48,36.5 52.5,29 79.3,29 83.6,36.3 87.9,43.6 83.5,51 "/>
<polygon class="st1" points="77.1,63.2 73.1,56.4 63.6,40.5 72.4,40.5 85.9,63.2 81.6,70.4 77.2,77.7 68.5,77.6 "/>
<polygon class="st2" points="54.4,78.4 58.4,71.6 67.8,55.6 72.3,63.1 58.8,85.7 50.2,85.7 41.5,85.7 37.3,78.4 "/>
<polygon class="st1" points="29.7,66.8 37.6,66.8 56.5,66.8 52.1,74.2 25.2,74.2 21,67 16.6,59.6 21.1,52.3 "/>
<polygon class="st2" points="27.5,40 31.5,46.8 40.9,62.8 32.1,62.8 18.7,40 23,32.9 27.3,25.5 36.1,25.7 "/>
<path class="st1" d="M52.3,3c3.2,0,5.8,2.6,5.8,5.6s-2.6,5.6-5.8,5.6s-5.8-2.6-5.8-5.6S49.1,3,52.3,3C52.3,3,52.3,3,52.3,3z"/>
<path class="st2" d="M52.3,89c3.2,0,5.8,2.6,5.8,5.6s-2.6,5.6-5.8,5.6s-5.8-2.6-5.8-5.6S49.1,89,52.3,89L52.3,89z"/>
<path class="st2" d="M95.5,27.3c1.6,2.7,0.6,6.1-2.1,7.6s-6.3,0.6-7.8-2.1c-1.6-2.6-0.6-6.1,2.1-7.6C90.4,23.8,94,24.7,95.5,27.3
	L95.5,27.3z"/>
<path class="st1" d="M19.1,70.4c1.5,2.6,0.6,6.1-2.1,7.6s-6.3,0.6-7.8-2.1c-1.6-2.6-0.6-6.1,2.1-7.6C14,66.7,17.5,67.6,19.1,70.4
	C19.1,70.4,19.1,70.4,19.1,70.4z"/>
<path class="st1" d="M95.5,75.9c-1.6,2.6-5.1,3.6-7.8,2.1c-2.7-1.6-3.7-5-2.1-7.6s5.1-3.5,7.8-2.1C96.1,69.8,97.1,73.3,95.5,75.9
	L95.5,75.9z"/>
<path class="st2" d="M19.1,32.9c-1.6,2.7-5.1,3.6-7.9,2.1c-2.7-1.5-3.7-5-2.1-7.6s5.1-3.6,7.9-2C19.7,26.9,20.6,30.2,19.1,32.9
	L19.1,32.9z"/>
</svg>
