<?xml version="1.0" encoding="utf-8"?>
<!-- Generator: Adobe Illustrator 28.1.0, SVG Export Plug-In . SVG Version: 6.00 Build 0)  -->
<svg version="1.1" id="Layer_1" xmlns="http://www.w3.org/2000/svg" xmlns:xlink="http://www.w3.org/1999/xlink" x="0px" y="0px"
	 viewBox="0 0 115.1 134" style="enable-background:new 0 0 115.1 134;" xml:space="preserve">
<style type="text/css">
	.st0{fill:#767676;}
</style>
<rect width="115.1" height="134"/>
<g>
	<path class="st0" d="M57.1,35.9c-5,3.2-10.9,6.8-13.9,12.7c-5.3,10.4,11,21.7,11.6,22.2c0.2,0.1,0.4,0.2,0.5,0.2
		c0.3,0,0.4-0.1,0.6-0.2c0.3-0.3,0.4-0.6,0.3-1c-0.1-0.1-5.9-10.2-5.6-17.4c0.1-2.5,4-5.4,8.2-8.4c3.9-2.8,8.2-5.9,10.8-9.6
		c5.6-8.1-0.6-16.1-0.7-16.2c-0.3-0.3-0.7-0.4-1.1-0.3s-0.6,0.5-0.5,0.9c0,0.1,1.2,5.3-2.1,10.8C63.7,31.7,60.5,33.7,57.1,35.9
		L57.1,35.9z"/>
	<path class="st0" d="M78.3,39.4c0.4-0.3,0.4-0.7,0.3-1c-0.3-0.4-0.7-0.4-1.1-0.4c-0.9,0.3-21.1,7.3-21.1,15.6
		c0,5.7,2.8,8.8,4.8,11.1c0.8,0.9,1.5,1.6,1.7,2.2c0.6,1.9-0.9,5.2-1.5,6.3c-0.2,0.3-0.1,0.7,0.3,0.9c0.2,0.2,0.4,0.2,0.6,0.2
		s0.4-0.1,0.5-0.2c0.3-0.3,8.6-5.3,7-11.6c-0.5-2.3-1.9-4-2.9-5.6c-1.8-2.3-3-4-1.1-7.2C67.9,46.4,78.3,39.5,78.3,39.4L78.3,39.4z"
		/>
	<path class="st0" d="M25.8,74.5c-0.4,0.9-0.2,1.9,0.4,2.7c2.1,2.7,10,4.2,21.8,4.2l0,0c1.6,0,3.3,0,5-0.1
		c19.1-0.6,26.1-5.8,26.4-6.1c0.3-0.3,0.4-0.6,0.3-1c-0.2-0.3-0.6-0.4-1-0.4C71.9,75.4,59.5,76,50.7,76c-9.7,0-14.6-0.6-15.8-1.1
		c0.6-0.8,4.5-2.1,9.2-3c0.4-0.1,0.8-0.4,0.7-0.9c-0.1-0.4-0.4-0.7-0.9-0.7C41.2,70.4,27.1,70.7,25.8,74.5L25.8,74.5z"/>
	<path class="st0" d="M89.4,69.2c-3.9,0-7.7,1.7-7.8,1.8c-0.4,0.2-0.5,0.5-0.4,0.9c0.1,0.4,0.4,0.6,0.9,0.6c0.1,0,8.4,0.1,9.2,4.3
		c0.7,3.7-7.8,9.5-11.1,11.5c-0.4,0.3-0.5,0.6-0.3,0.9c0.2,0.3,0.4,0.4,0.9,0.4c0.1,0,0.2,0,0.2,0c0.8-0.2,19.3-3.9,17.5-13.5
		C96.9,70.4,92.7,69.2,89.4,69.2L89.4,69.2z"/>
	<path class="st0" d="M76.7,87c0.1-0.3-0.1-0.6-0.4-0.8l-4.5-2.8c-0.3-0.2-0.4-0.2-0.8-0.2c-0.1,0-4.7,1.1-11.5,1.8
		c-2.7,0.3-5.6,0.4-8.6,0.4c-6.8,0-11.1-0.7-11.8-1.3C39,84,39,84,39,84c0.2-0.3,0.8-0.6,1.2-0.8c0.4-0.2,0.7-0.5,0.5-1
		c-0.2-0.4-0.6-0.6-1.1-0.5c-4.5,0.9-6.7,2.2-6.5,3.9c0.3,3,8,4.5,14.6,4.9c0.9,0.1,2,0.1,3,0.1l0,0c11,0,24.9-3.1,25.1-3.1
		C76.4,87.6,76.7,87.4,76.7,87L76.7,87z"/>
	<path class="st0" d="M43.1,93.5c0.3-0.2,0.4-0.5,0.4-0.9c-0.2-0.3-0.4-0.5-0.9-0.5c-0.6,0-5.9,0.3-6.2,3.2
		c-0.1,0.9,0.2,1.7,0.9,2.4c1.9,2.1,6.9,3.2,15.6,3.6c1,0.1,2.1,0.1,3.1,0.1c11,0,18.2-3.1,18.6-3.2c0.3-0.2,0.4-0.4,0.5-0.7
		c0-0.3-0.2-0.5-0.4-0.7l-5.6-3.1c-0.2-0.1-0.4-0.2-0.6-0.1c-0.1,0-3.7,0.6-9,1.3c-1,0.2-2.3,0.2-3.8,0.2c-5.4,0-11.4-0.8-12.6-1.3
		C43,93.7,43,93.6,43.1,93.5L43.1,93.5z"/>
	<path class="st0" d="M50.7,110.5c25,0,38.5-3.9,41-6.5c0.9-0.9,1-1.7,0.9-2.2c-0.2-1.3-1.5-2.2-1.7-2.2c-0.4-0.3-0.9-0.2-1.2,0.2
		s-0.3,0.7,0,1c0.2,0.2,0.3,0.4-0.3,0.9c-1,0.9-11.5,3.4-28.8,4.2c-2.4,0.1-4.9,0.2-7.4,0.2c-15.6,0-27-1.9-28.4-3
		c0.5-0.7,4.5-1.9,8.9-2.6c0.4-0.1,0.8-0.4,0.8-0.9c-0.1-0.4-0.5-0.7-1-0.7c-0.2,0-0.5,0.1-1,0.1c-7,0.4-15.2,1.3-15.7,4.5
		c-0.2,1,0.3,1.9,1,2.7C19.8,107.9,25.3,110.5,50.7,110.5C67.8,110.5,67.8,110.5,50.7,110.5L50.7,110.5z"/>
	<path class="st0" d="M96.8,104.8c-0.4-0.2-0.8-0.1-1,0.2c-0.1,0.1-3.8,3.5-15.1,5.7c-4.4,0.8-12.5,1.2-24.1,1.2s-22.9-0.4-23-0.4
		c-0.4,0-0.9,0.3-0.9,0.7c-0.1,0.4,0.3,0.8,0.7,0.9c0.1,0,11.8,2.4,27.8,2.4c7.7,0,15.1-0.5,22.2-1.6c13.2-2.1,14.1-7.9,14.1-8.1
		C97.3,105.2,97,104.9,96.8,104.8L96.8,104.8z"/>
</g>
</svg>
