<?xml version="1.0" encoding="utf-8"?>
<!-- Generator: Adobe Illustrator 28.1.0, SVG Export Plug-In . SVG Version: 6.00 Build 0)  -->
<svg version="1.1" id="Capa_1" xmlns="http://www.w3.org/2000/svg" xmlns:xlink="http://www.w3.org/1999/xlink" x="0px" y="0px"
	 viewBox="0 0 800 800" style="enable-background:new 0 0 800 800;" xml:space="preserve">
<style type="text/css">
	.st0{fill:#767676;}
</style>
<rect width="800" height="800"/>
<path class="st0" d="M673.5,546.4c-82.3,109.6-258,72.6-370.7,77.9c0,0-20,1.1-40,4.4c0,0,7.6-3.2,17.3-6.6
	c79.1-27.4,116.5-32.9,164.6-57.6C535,518.2,625,417.4,643.3,312.7c-34.4,100.7-139,187.4-234.2,222.6
	C343.9,559.4,226,582.8,226,582.8c-1.6-0.8-3.2-1.7-4.8-2.5c-80.2-39-82.5-212.7,63.1-268.6c63.9-24.5,124.9-11.1,193.9-27.5
	c73.6-17.5,158.9-72.7,193.5-144.8C710.5,254.7,757.2,434.9,673.5,546.4z M674.9,103.7c-9.3,22.3-21.2,43.5-35.5,63
	c-62.7-64.6-148.9-101.1-238.9-101c-184.1,0-333.8,149.7-333.8,333.8c0,92.8,38.7,181.4,106.8,244.5l7.3,6.5
	c-11.1-11.1-11.1-29.2,0-40.4c11.1-11.1,29.2-11.1,40.4,0c11.1,11.1,11.1,29.2,0,40.4c-11.1,11.1-29.2,11.1-40.3,0l5,4.4
	c60,50.7,136.1,78.5,214.7,78.5c175.9,0,320.4-136.9,332.8-309.7C742.4,339,717.4,231.5,674.9,103.7"/>
</svg>
